<?xml version="1.0" encoding="utf-8"?>
<!-- Generator: Adobe Illustrator 26.4.1, SVG Export Plug-In . SVG Version: 6.00 Build 0)  -->
<svg version="1.1" id="Capa_1" xmlns="http://www.w3.org/2000/svg" xmlns:xlink="http://www.w3.org/1999/xlink" x="0px" y="0px"
	 viewBox="0 0 171.3 223.3" style="enable-background:new 0 0 171.3 223.3;" xml:space="preserve">
<style type="text/css">
	.st0{fill:#333333;}
</style>
<g transform="translate(1.4065934065934016 1.4065934065934016) scale(2.81 2.81)">
	<path class="st0" d="M30-0.5C13.2-0.5-0.5,12.6-0.5,28.7v0.8c0,1.5,0.2,3.3,0.5,5.4c1,6.2,3.4,11.8,7.2,16.4l21.4,26.9
		C29,78.7,29.5,79,30,79c0.5,0,1-0.3,1.3-0.7l21.4-27.3c2.9-3.7,4.9-7.8,6.1-12.1c0.1-0.2,0.1-0.4,0.2-0.6c0.1-0.5,0.3-0.8,0.3-1.2
		l0,0c0.8-2.6,1.2-5.3,1.2-8.2C60.5,12.6,46.8-0.5,30-0.5z M57.3,29.4c0,0.6-0.1,1.2-0.2,1.9l0,0.3c-0.7,6.4-3.3,12.6-7.5,18
		L30,74.3L10.7,50.7C6,45,3.3,38.3,2.8,31.3c0-0.3,0-0.6-0.1-0.9c0-0.3,0-0.6,0-0.8v-0.8C2.7,14.4,15,2.6,30,2.6
		c15.1,0,27.4,11.7,27.4,26V29.4z"/>
	<path class="st0" d="M30,16.5c-6.6,0-12,5.4-12,12c0,6.7,5.4,12.1,12,12.1c6.6,0,12-5.4,12-12C42,21.9,36.6,16.5,30,16.5z M30,37.7
		c-5.2,0-9.3-4.1-9.3-9.3s4.1-9.3,9.3-9.3c5.2,0,9.3,4.1,9.3,9.3S35.2,37.7,30,37.7z"/>
</g>
</svg>
