<?xml version="1.0" encoding="utf-8"?>
<!-- Generator: Adobe Illustrator 26.4.1, SVG Export Plug-In . SVG Version: 6.00 Build 0)  -->
<svg version="1.1" id="Capa_1" xmlns="http://www.w3.org/2000/svg" xmlns:xlink="http://www.w3.org/1999/xlink" x="0px" y="0px" viewBox="0 0 3000 3000" style="enable-background:new 0 0 3000 3000;" xml:space="preserve">
<path  fill="currentColor" class="st0" d="M2321.2,400.1l36.9-260H641.8l36.9,260H156v456.6c0,95.4,17.8,188.6,52.9,276.9c35.3,89,86.6,169,152.4,237.8
	c81.8,85.5,175.6,153.2,278.8,201c114.7,53.2,240.4,81.6,374.5,84.7c96.3,91.9,218,157.2,354.1,184.1c6.5,1.3,13,2.5,19.5,3.6v303.1
	h-194.8c-63.2,0-124.6,11.5-182.6,34.3c-54.6,21.5-106.5,53-154.1,93.8c-58,49.7-104.5,111.7-138.2,184.3
	C679,2545.5,659,2642.2,659,2748v112h1682.3v-112c0-105.7-20-202.5-59.5-287.7c-33.6-72.6-80.1-134.6-138.2-184.3
	c-47.6-40.8-99.5-72.4-154.1-93.8c-58-22.8-119.4-34.3-182.6-34.3H1612v-303.1c6.5-1.1,13-2.3,19.5-3.6
	c136-26.9,257.8-92.2,354.1-184.1c134-3.1,259.8-31.5,374.5-84.7c103.2-47.9,196.9-115.5,278.8-201
	c65.8-68.8,117.1-148.8,152.4-237.8c35.1-88.3,52.9-181.5,52.9-276.9V400.1H2321.2z M523.1,1216.5
	c-92.3-96.5-143.2-224.3-143.2-359.8V624h330.6l86.6,610.1c8.7,61.1,24.9,119.7,47.7,175C722.6,1376.9,614.9,1312.5,523.1,1216.5z
	 M1806.8,2371.7c70.2,0,132.6,24.3,191,74.3c33.8,29,84.9,87.7,107.8,190h-1211c22.8-102.3,74-161,107.8-190
	c58.3-50,120.8-74.3,191-74.3H1500H1806.8z M1981.1,1202.7c-29.8,209.8-187.8,378.1-393.1,418.8c-30,5.9-59.6,8.9-88,8.9
	s-58-3-88-8.9c-205.3-40.6-363.3-208.9-393.1-418.8L899.8,364h1200.3L1981.1,1202.7z M2620.1,856.6c0,135.5-50.8,263.3-143.2,359.8
	c-91.8,96-199.5,160.4-321.8,192.6c22.8-55.2,39-113.9,47.7-175l86.6-610.1H2620L2620.1,856.6L2620.1,856.6z"/>
</svg>
