<?xml version="1.0" encoding="utf-8"?>
<!-- Generator: Adobe Illustrator 26.4.1, SVG Export Plug-In . SVG Version: 6.00 Build 0)  -->
<svg version="1.1" id="Capa_1" xmlns="http://www.w3.org/2000/svg" xmlns:xlink="http://www.w3.org/1999/xlink" x="0px" y="0px" viewBox="0 0 3000 3000" style="enable-background:new 0 0 3000 3000;" xml:space="preserve">
<g class="st0">
	<path fill="currentColor" d="M928.6,2626.6c187.2,144.6,385.2,236.4,571.4,294.4c186.1-58,384.2-149.8,571.4-294.4
		c838.1-647.4,785.5-1833.4,775.3-2005.4C1984,621.2,1500,79,1500,79S1016,621.2,153.4,621.2C143.2,793.2,90.5,1979.2,928.6,2626.6z
		 M1500,380.8c203.1,161.8,586.3,400.5,1125.9,453.7c-8.8,387.3-104.9,1161.6-691.5,1614.8c-128.7,99.4-274.5,178.4-434.4,235.5
		c-159.9-57.1-305.7-136.2-434.4-235.5C479,1996.1,382.9,1221.8,374.1,834.5C913.7,781.3,1296.9,542.5,1500,380.8z"/>
	<polygon fill="currentColor" points="2137.4,1133.4 1488,1854.7 1328.8,2031.5 1154.6,1869.4 833.8,1570.9 995.8,1396.7 1313.8,1692.6 1960.6,974.2 	
		"/>
</g>
</svg>
