<?xml version="1.0" encoding="utf-8"?>
<!-- Generator: Adobe Illustrator 26.4.1, SVG Export Plug-In . SVG Version: 6.00 Build 0)  -->
<svg version="1.1" id="Capa_1" xmlns="http://www.w3.org/2000/svg" xmlns:xlink="http://www.w3.org/1999/xlink" x="0px" y="0px"
	 viewBox="0 0 1000 1000" style="enable-background:new 0 0 1000 1000;" xml:space="preserve">
<style type="text/css">
	.st0{fill:#00A650;}
	.st1{fill:none;stroke:#000000;stroke-miterlimit:10;}
</style>
<g>
	<g>
		<path class="st0" d="M912.6,274h-94.7l0.1-0.3c23.7-63.1-22.9-130.5-90.4-130.5h-516v61.4h516c22.7,0,38.4,22.7,30.4,43.9
			L627.8,595c-49.4,13.1-87.5,53.9-96.6,104.7H342.5c-11.2-62.1-65.6-109.2-131-109.2H18v64.9h79.3c-11.9,19.9-18.8,43.4-18.8,68.3
			c0,73.5,59.6,133.1,133.1,133.1c60.5,0,111.6-40.4,127.7-95.6h195.1c16.2,55.2,67.3,95.6,127.7,95.6c60.5,0,111.6-40.4,127.7-95.6
			h90.7L982,491.4L912.6,274z M211.6,788.4c-35.8,0-64.9-29-64.9-64.9c0-35.8,29-64.9,64.9-64.9s64.9,29,64.9,64.9
			C276.4,759.4,247.4,788.4,211.6,788.4z M662.2,788.4c-21.8,0-41.2-10.8-52.9-27.3c-7.5-10.6-11.9-23.6-11.9-37.6
			c0-8.4,1.6-16.5,4.6-23.9c9.5-24,32.9-41,60.3-41c3.7,0,7.3,0.3,10.9,0.9c22.6,3.8,41.2,19.3,49.4,40.1c2.9,7.4,4.6,15.5,4.6,23.9
			c0,14-4.4,27-11.9,37.6C703.4,777.7,684,788.4,662.2,788.4z M834.3,699.7h-41.2c-9.1-50.6-46.9-91.2-95.9-104.5l96.7-257.3h69.7
			l49,153.6L834.3,699.7z"/>
	</g>
	<path class="st1" d="M877.3,406.1"/>
	<rect x="81.8" y="406.1" class="st0" width="129.7" height="64.9"/>
	<rect x="20.4" y="276.4" class="st0" width="320.9" height="64.9"/>
</g>
</svg>
