<?xml version="1.0" encoding="utf-8"?>
<!-- Generator: Adobe Illustrator 26.4.1, SVG Export Plug-In . SVG Version: 6.00 Build 0)  -->
<svg version="1.1" id="Capa_1" xmlns="http://www.w3.org/2000/svg" xmlns:xlink="http://www.w3.org/1999/xlink" x="0px" y="0px" viewBox="0 0 3000 3000" style="enable-background:new 0 0 3000 3000;" xml:space="preserve">
<g>
	<circle fill="currentColor" cx="1499.5" cy="1074.2" r="160.5"/>
	<path fill="currentColor" d="M1499.5,2876.3l-77.9-88c-8.8-10-219.2-248.7-432.6-576.6c-126.2-193.9-226.9-378.7-299.5-549.2
		C596.3,1443.2,549,1245.3,549,1074.2c0-128.3,25.1-252.8,74.7-370C671.6,591,740.1,489.4,827.4,402.1
		c87.3-87.3,188.9-155.8,302.1-203.7c117.3-49.6,241.7-74.7,370-74.7c128.3,0,252.8,25.1,370,74.7
		c113.2,47.9,214.8,116.4,302.1,203.7c87.3,87.3,155.8,188.9,203.7,302.1c49.6,117.3,74.7,241.7,74.7,370
		c0,171.1-47.3,369-140.6,588.2c-72.6,170.6-173.4,355.3-299.5,549.2c-213.4,327.9-423.7,566.6-432.6,576.6L1499.5,2876.3z
		 M1499.5,331.7c-409.5,0-742.6,333.1-742.6,742.6c0,260.8,140,614.1,404.9,1021.7c128.4,197.6,258.1,364.2,337.6,461.8
		c79.5-97.6,209.2-264.2,337.6-461.8c264.9-407.6,404.9-760.9,404.9-1021.7C2242.1,664.8,1909,331.7,1499.5,331.7z"/>
</g>
</svg>
