<?xml version="1.0" encoding="utf-8"?>
<!-- Generator: Adobe Illustrator 26.4.1, SVG Export Plug-In . SVG Version: 6.00 Build 0)  -->
<svg version="1.1" id="Capa_1" xmlns="http://www.w3.org/2000/svg" xmlns:xlink="http://www.w3.org/1999/xlink" x="0px" y="0px"
	 viewBox="0 0 36 32" style="enable-background:new 0 0 36 32;" xml:space="preserve">
<path d="M33.1,3.2L33,3.1C29.1-0.9,22.6-1,18.5,2.9L18,3.4l-0.5-0.5C13.4-1,6.9-0.9,3,3.1L2.9,3.2c-3.9,4-3.8,10.5,0.2,14.4L18,32
	l14.9-14.3c2-1.9,3.1-4.4,3.1-7.2C36,7.8,35,5.2,33.1,3.2z M30.8,15.5L18,27.9L5.2,15.5C2.3,12.7,2.2,8.2,5,5.3l0.1-0.1
	C7.9,2.3,12.5,2.2,15.4,5L18,7.5L20.6,5c2.9-2.8,7.5-2.7,10.3,0.2L31,5.3C33.7,8.2,33.7,12.7,30.8,15.5z"/>
</svg>
