<?xml version="1.0" encoding="utf-8"?>
<!-- Generator: Adobe Illustrator 26.4.1, SVG Export Plug-In . SVG Version: 6.00 Build 0)  -->
<svg version="1.1" id="Capa_1" xmlns="http://www.w3.org/2000/svg" xmlns:xlink="http://www.w3.org/1999/xlink" x="0px" y="0px"
	 viewBox="0 0 36 32.3" style="enable-background:new 0 0 36 32.3;" xml:space="preserve">
<path d="M27.6,0.5c-3.5-1-6.8-0.2-9.5,2.1L18,2.7l-0.1-0.1c-2-1.7-4.2-2.5-6.6-2.5c-1,0-2,0.1-3,0.4c-4,1.1-6.5,3.9-7.4,8
	c-0.5,2.5-0.2,5,0.9,7.9c1,2.5,2.7,4.8,5.2,7.2c2.3,2.2,4.9,4,7.3,5.7c1.1,0.7,2,1.4,2.9,2.1l0.8,0.7l0.8-0.7
	c0.9-0.8,1.8-1.4,2.9-2.2c2.5-1.7,5.1-3.5,7.3-5.7c2.5-2.4,4.2-4.7,5.2-7.2c1.2-2.8,1.5-5.4,0.9-7.9C34.1,4.4,31.6,1.7,27.6,0.5z
	 M31.9,15.5c-0.9,2.2-2.4,4.2-4.6,6.3c-2.2,2-4.7,3.8-7.1,5.5c-0.7,0.5-1.5,1-2.2,1.6L18,29l-0.1-0.1c-0.7-0.6-1.5-1.1-2.2-1.6
	c-2.4-1.7-4.9-3.4-7.1-5.4c-2.3-2.1-3.7-4.1-4.6-6.3c-1-2.4-1.2-4.5-0.8-6.4c0.7-3.3,2.7-5.4,5.8-6.3C12,2,14.8,2.8,17.1,5.2L18,6.1
	l0.8-0.9C21.1,2.8,23.9,2,27,2.8c3.1,0.9,5.1,3,5.8,6.3C33.2,11.1,32.9,13.2,31.9,15.5z"/>
</svg>
