<?xml version="1.0" encoding="utf-8"?>
<!-- Generator: Adobe Illustrator 26.4.1, SVG Export Plug-In . SVG Version: 6.00 Build 0)  -->
<svg version="1.1" id="Capa_1" xmlns="http://www.w3.org/2000/svg" xmlns:xlink="http://www.w3.org/1999/xlink" x="0px" y="0px"
	 viewBox="0 0 3000 3000" style="enable-background:new 0 0 3000 3000;" xml:space="preserve">
<style type="text/css">
	.st0{opacity:0.55;}
</style>
<path class="st0" d="M2386.8,1796.5c128.9-179.2,204.9-399.1,204.9-636.8c0-602.9-488.7-1091.6-1091.6-1091.6
	S408.5,556.9,408.5,1159.8c0,237.6,75.9,457.5,204.9,636.8l-334.2,626.7l504.8,12.2l270.3,496.6l355.3-684.3
	c29.9,2.5,60.1,3.7,90.5,3.7c30.5,0,60.7-1.3,90.5-3.7l355.3,684.3l270.3-496.6l504.8-12.2L2386.8,1796.5z M1049.8,2477.6
	l-137.4-252.5l-282.2-6.8l134.4-251.9c120.4,109.8,265.4,193.1,425.8,240.4L1049.8,2477.6z M1500.1,2009.6
	c-469.3,0-849.8-380.5-849.8-849.8S1030.8,310,1500.1,310s849.8,380.5,849.8,849.8S1969.4,2009.6,1500.1,2009.6z M2087.8,2225.1
	l-137.4,252.5l-140.6-270.8c160.4-47.4,305.4-130.6,425.8-240.4l134.4,251.9L2087.8,2225.1z"/>
</svg>
