<?xml version="1.0" encoding="utf-8"?>
<!-- Generator: Adobe Illustrator 26.4.1, SVG Export Plug-In . SVG Version: 6.00 Build 0)  -->
<svg version="1.1" id="Capa_1" xmlns="http://www.w3.org/2000/svg" xmlns:xlink="http://www.w3.org/1999/xlink" x="0px" y="0px"
	 viewBox="0 0 256 256" style="enable-background:new 0 0 256 256;" xml:space="preserve">
<style type="text/css">
	.st0{fill:#333333;}
</style>
<g>
	<path class="st0" d="M242.9,50.1l-28.5,84.3H95.8l-35-106.9c-0.6-3.2-3.4-5.5-6.7-5.5L6.8,22C5,21.8,3.3,22.4,2,23.6
		c-1.3,1.2-2,2.8-2,4.5c0,3.6,3,6.5,6.7,6.5h41.8l35.3,107.4c0.6,3.1,3.4,5.4,6.6,5.4h129.3c3.2,0,6-2.2,6.5-5.2l29.5-88.2l0-0.1
		c0.4-1.8-0.1-3.8-1.4-5.3c-1.2-1.4-3.2-2.3-5.1-2.3C249.3,46.3,244.1,46.4,242.9,50.1z"/>
	<path class="st0" d="M106.9,162.8c-17.5,0-31.7,14.2-31.7,31.7c0,17.5,14.2,31.7,31.7,31.7c17.5,0,31.7-14.2,31.7-31.7
		C138.5,177,124.3,162.8,106.9,162.8z M126.2,194.6c-0.1,10.6-8.8,19.3-19.3,19.3c-10.6,0-19.3-8.7-19.3-19.3
		c0-10.6,8.7-19.3,19.3-19.3C117.5,175.3,126.2,183.9,126.2,194.6L126.2,194.6z"/>
	<path class="st0" d="M201.7,162.8c-17.5,0-31.7,14.2-31.7,31.7c0,17.5,14.2,31.7,31.7,31.7c17.5,0,31.7-14.2,31.7-31.7
		C233.4,177,219.1,162.8,201.7,162.8z M201.7,213.9c-10.6,0-19.3-8.7-19.3-19.3c0-10.6,8.7-19.3,19.3-19.3s19.3,8.7,19.3,19.3
		C221,205.2,212.3,213.9,201.7,213.9z"/>
</g>
</svg>
