<?xml version="1.0" encoding="utf-8"?>
<!-- Generator: Adobe Illustrator 26.4.1, SVG Export Plug-In . SVG Version: 6.00 Build 0)  -->
<svg version="1.1" id="Capa_1" xmlns="http://www.w3.org/2000/svg" xmlns:xlink="http://www.w3.org/1999/xlink" x="0px" y="0px"
	 viewBox="0 0 1000 1000" style="enable-background:new 0 0 1000 1000;" xml:space="preserve">
<style type="text/css">
	.st0{fill:#3A3A3A;}
</style>
<path class="st0" d="M971.1,936.5L686,648.8l6.5-7.7c57.4-68.4,89-155.1,89-244.2c0-209.6-170.6-380.2-380.3-380.2
	C191.6,16.7,21,187.3,21,396.9c0,209.7,170.6,380.3,380.2,380.3c87.3,0,169.6-29,237.8-83.8l7.7-6.2l285.3,288
	c5.2,5.3,12.1,8.1,19.5,8.1c7.3,0,14.1-2.8,19.2-7.9C981.6,964.8,981.7,947.3,971.1,936.5z M401.2,722.3
	c-179.4,0-325.3-146-325.3-325.4S221.8,71.5,401.2,71.5c179.4,0,325.4,146,325.4,325.4S580.6,722.3,401.2,722.3z"/>
</svg>
